<svg width="52" height="52" viewBox="0 0 52 52" fill="none" xmlns="http://www.w3.org/2000/svg">
<path d="M15.1726 15.2487C15.1726 14.3781 14.4668 13.6723 13.5962 13.6723C12.7256 13.6723 12.0198 14.3781 12.0198 15.2487V36.7518C12.0198 37.6224 12.7256 38.3282 13.5962 38.3282C14.4668 38.3282 15.1726 37.6224 15.1726 36.7518V15.2487Z" fill="#7DCFEA" stroke="#7DCFEA" stroke-width="0.5"/>
<path d="M21.3747 19.5682C21.3747 18.6975 20.669 17.9918 19.7983 17.9918C18.9277 17.9918 18.2219 18.6975 18.2219 19.5682V32.4321C18.2219 33.3027 18.9277 34.0085 19.7983 34.0085C20.669 34.0085 21.3747 33.3027 21.3747 32.4321V19.5682Z" fill="#7DCFEA" stroke="#7DCFEA" stroke-width="0.5"/>
<path d="M36.8274 36.7513C36.8274 37.6219 37.5332 38.3277 38.4038 38.3277C39.2744 38.3277 39.9802 37.6219 39.9802 36.7513V15.2482C39.9802 14.3776 39.2744 13.6718 38.4038 13.6718C37.5332 13.6718 36.8274 14.3776 36.8274 15.2482V36.7513Z" fill="#7DCFEA" stroke="#7DCFEA" stroke-width="0.5"/>
<path d="M30.6257 32.4318C30.6257 33.3025 31.3315 34.0082 32.2022 34.0082C33.0728 34.0082 33.7786 33.3025 33.7786 32.4318V19.5679C33.7786 18.6973 33.0728 17.9915 32.2022 17.9915C31.3315 17.9915 30.6257 18.6973 30.6257 19.5679V32.4318Z" fill="#7DCFEA" stroke="#7DCFEA" stroke-width="0.5"/>
<path d="M27.5764 23.4314C27.5764 22.5607 26.8706 21.8549 26 21.8549C25.1294 21.8549 24.4236 22.5607 24.4236 23.4314V28.5688C24.4236 29.4395 25.1294 30.1453 26 30.1453C26.8706 30.1453 27.5764 29.4395 27.5764 28.5688V23.4314Z" fill="#7DCFEA" stroke="#7DCFEA" stroke-width="0.5"/>
<path d="M3.94049 26C3.94049 13.8169 13.8169 3.94049 26 3.94049C38.1831 3.94049 48.0595 13.8169 48.0595 26C48.0595 38.1831 38.1831 48.0595 26 48.0595C13.8169 48.0595 3.94049 38.1831 3.94049 26ZM26 0.75C12.0548 0.75 0.75 12.0548 0.75 26C0.75 39.9452 12.0548 51.25 26 51.25C39.9452 51.25 51.25 39.9452 51.25 26C51.25 12.0548 39.9452 0.75 26 0.75Z" fill="#7DCFEA" stroke="#7DCFEA" stroke-width="0.5" stroke-miterlimit="10"/>
</svg>
